# xmcd
#
# Track frame offsets:
# 150
# 12080
# 23612
# 34389
# 50472
# 61770
# 74547
# 84213
# 100303
# 111345
# 125869
# 136821
# 153476
# 168747
# 179748
# 193235
# 206735
# 221066
#
# Disc length: 3149 seconds
#
#
# Revision: 0
# Processed by: cddbd v1.5.1PL0 Copyright (c) Steve Scherf et al.
# Submitted via: FreeRIP 2.70 
#
DISCID=0e0c4b12
DTITLE=The Golden Gate Quarted - and The Good Book
DYEAR=2003
DGENRE=Gospel
TTITLE0=I Soon Will Be Done With The Troubles Of This World
TTITLE1=Shadrack
TTITLE2=Ezekiel Saw The Wheel
TTITLE3=Swing Low Sweet Chariot
TTITLE4=Rock My Soul
TTITLE5=The End Of My Journey
TTITLE6=Gospel Train
TTITLE7=Go Down Moses
TTITLE8=Joshua Fit The Battle Of Jericho
TTITLE9=Sometimes I Feel Like A Motherless Child
TTITLE10=Didn't It Rain
TTITLE11=Hush Hush
TTITLE12=Oh Happy Day (a capela)
TTITLE13=Down By The Riverside
TTITLE14=Wade In The Water
TTITLE15=Siwng Down Chariot
TTITLE16=Nobody Knows The Trouble I've Seen
TTITLE17=Oh Hapy Day (avec la guitare)
EXTD=reprise of Louis Armstrong's  "And The Good \nBook" for Fremeaux et Associés Records\n(France)
EXTT0=
EXTT1=
EXTT2=
EXTT3=
EXTT4=
EXTT5=
EXTT6=
EXTT7=
EXTT8=
EXTT9=
EXTT10=
EXTT11=
EXTT12=
EXTT13=
EXTT14=
EXTT15=
EXTT16=
EXTT17=
PLAYORDER=
